<svg width="15" height="15" viewBox="0 0 15 15" fill="none" xmlns="http://www.w3.org/2000/svg">
<path d="M10.3674 8.04909C10.3401 8.03603 9.31901 7.53471 9.13759 7.46966C9.06353 7.44316 8.98419 7.41731 8.89984 7.41741C8.76205 7.41759 8.64638 7.48641 8.55639 7.62143C8.45464 7.7731 8.14651 8.13426 8.05129 8.24215C8.03886 8.25639 8.02188 8.27342 8.0117 8.27343C8.00257 8.27344 7.84456 8.20859 7.79673 8.18788C6.70147 7.71365 5.86914 6.571 5.75497 6.37828C5.73867 6.35057 5.73797 6.33798 5.73783 6.33798C5.74181 6.3233 5.77858 6.28634 5.79755 6.26727C5.85306 6.2122 5.91319 6.13963 5.97137 6.06942C5.99891 6.03616 6.0265 6.00285 6.05359 5.97145C6.138 5.87299 6.17554 5.79658 6.21905 5.70807L6.24186 5.66208C6.34812 5.45027 6.25691 5.27175 6.22744 5.2141C6.20325 5.16586 5.77107 4.1263 5.72513 4.01709C5.61464 3.75354 5.46892 3.63095 5.26664 3.63121C5.24787 3.63123 5.26664 3.6312 5.18793 3.63462C5.09209 3.63879 4.57022 3.70816 4.33962 3.85395C4.09509 4.00857 3.68168 4.501 3.68276 5.36609C3.68373 6.14468 4.17865 6.8792 4.39109 7.15852C4.39637 7.16556 4.40607 7.17987 4.42014 7.2004C5.23388 8.38584 6.24757 9.26385 7.27457 9.67271C8.2633 10.0663 8.73132 10.1114 8.99736 10.111L8.99741 10.111C9.1092 10.1109 9.19868 10.102 9.27761 10.0941L9.32768 10.0893C9.66904 10.0586 10.4188 9.66884 10.5888 9.19431C10.7228 8.82056 10.7578 8.41233 10.6681 8.26431C10.6067 8.16365 10.5011 8.1131 10.3674 8.04909Z" fill="#5D4037"/>
<path d="M7.12299 0.00859219C3.33203 0.0133097 0.251664 3.07869 0.256347 6.84182C0.257862 8.05896 0.585013 9.24996 1.20325 10.2919L0.0267468 13.7773C0.00483158 13.8422 0.0212817 13.914 0.0693794 13.9629C0.104099 13.9982 0.15116 14.0173 0.199197 14.0172C0.217603 14.0172 0.236141 14.0144 0.254222 14.0086L3.88486 12.8497C4.87944 13.3796 6.00313 13.6586 7.14002 13.6572C10.9306 13.6525 14.0107 10.5874 14.006 6.82471C14.0013 3.06158 10.9136 0.00387511 7.12299 0.00859219ZM7.13821 12.2356C6.06844 12.2369 5.03192 11.9292 4.14054 11.3458C4.11056 11.3262 4.07579 11.3161 4.04079 11.3162C4.02229 11.3162 4.00376 11.319 3.98572 11.3248L2.16699 11.9055L2.75219 10.1716C2.77111 10.1155 2.76154 10.0537 2.72648 10.0059C2.04709 9.07983 1.6872 7.98514 1.68577 6.84005C1.68207 3.86082 4.12198 1.43396 7.12471 1.43023C10.1271 1.42649 12.5728 3.84727 12.5765 6.82649C12.5802 9.80535 10.1406 12.2318 7.13821 12.2356Z" fill="#5D4037"/>
</svg>
